<?xml version="1.0" encoding="UTF-8"?>
<svg id="Layer_1" data-name="Layer 1" xmlns="http://www.w3.org/2000/svg" viewBox="0 0 95 95">
  <defs>
    <style>
      .cls-1 {
        fill: #c80000;
        stroke-width: 0px;
      }
    </style>
  </defs>
  <path class="cls-1" d="m83,2c5.51,0,10,4.49,10,10v71c0,5.51-4.49,10-10,10H12c-5.51,0-10-4.49-10-10V12C2,6.49,6.49,2,12,2h71m0-2H12C5.4,0,0,5.4,0,12v71c0,6.6,5.4,12,12,12h71c6.6,0,12-5.4,12-12V12c0-6.6-5.4-12-12-12h0Z"/>
  <path class="cls-1" d="m47.5,22c15.16,0,27.5,12.34,27.5,27.5s-12.34,27.5-27.5,27.5-27.5-12.34-27.5-27.5,12.34-27.5,27.5-27.5m0-2c-16.29,0-29.5,13.21-29.5,29.5s13.21,29.5,29.5,29.5,29.5-13.21,29.5-29.5-13.21-29.5-29.5-29.5h0Z"/>
  <path class="cls-1" d="m74,17c.55,0,1,.45,1,1s-.45,1-1,1-1-.45-1-1,.45-1,1-1m0-2c-1.66,0-3,1.34-3,3s1.34,3,3,3,3-1.34,3-3-1.34-3-3-3h0Z"/>
</svg>