<?xml version="1.0" encoding="utf-8"?>
<!-- Generator: Adobe Illustrator 28.0.0, SVG Export Plug-In . SVG Version: 6.00 Build 0)  -->
<svg version="1.1" id="Layer_1" xmlns="http://www.w3.org/2000/svg" xmlns:xlink="http://www.w3.org/1999/xlink" x="0px" y="0px"
	 viewBox="0 0 48 48" style="enable-background:new 0 0 48 48;" xml:space="preserve">
<style type="text/css">
	.st0{fill:#940014;}
</style>
<path class="st0" d="M36,3c5,0,9,4,9,9v24c0,5-4,9-9,9H12c-5,0-9-4-9-9V12c0-5,4-9,9-9H36 M36,0H12C5.4,0,0,5.4,0,12v24
	c0,6.6,5.4,12,12,12h24c6.6,0,12-5.4,12-12V12C48,5.4,42.6,0,36,0L36,0z"/>
<path class="st0" d="M24,14c5.5,0,10,4.5,10,10s-4.5,10-10,10s-10-4.5-10-10S18.5,14,24,14 M24,11c-7.2,0-13,5.8-13,13s5.8,13,13,13
	s13-5.8,13-13S31.2,11,24,11L24,11z"/>
<path class="st0" d="M35.5,7C34.1,7,33,8.1,33,9.5s1.1,2.5,2.5,2.5S38,10.9,38,9.5S36.9,7,35.5,7L35.5,7z"/>
</svg>
